<?xml version="1.0" encoding="iso-8859-1"?>
<!-- Generator: Adobe Illustrator 19.0.0, SVG Export Plug-In . SVG Version: 6.00 Build 0)  -->
<svg version="1.1" id="Layer_1" xmlns="http://www.w3.org/2000/svg" xmlns:xlink="http://www.w3.org/1999/xlink" x="0px" y="0px"
	 viewBox="0 0 512 512" style="enable-background:new 0 0 512 512;" xml:space="preserve">
<g>
	<g>
		<path d="M234.667,123.733c0,4.267,4.267,10.667,21.333,12.8V108.8C243.2,110.933,234.667,117.333,234.667,123.733z"/>
	</g>
</g>
<g>
	<g>
		<path d="M277.333,162.133v27.733c12.8-2.133,21.333-8.533,21.333-14.933C298.667,170.667,294.4,166.4,277.333,162.133z"/>
	</g>
</g>
<g>
	<g>
		<path d="M509.867,322.133L467.2,279.467c-4.267-4.267-10.667-4.267-14.933,0L281.6,450.133c-2.133,2.133-2.133,4.267-2.133,8.533
			v42.667c0,6.4,4.267,10.667,10.667,10.667H332.8c2.133,0,6.4-2.133,8.533-2.133L512,339.2C512,334.933,512,326.4,509.867,322.133z
			 M458.667,358.4l-27.733-27.733l27.733-27.733l27.733,27.733L458.667,358.4z"/>
	</g>
</g>
<g>
	<g>
		<path d="M373.333,0H138.667c0,0,0,0-2.133,0c0,0,0,0-2.133,0c0,0-2.133,2.133-4.267,2.133l-128,128c0,2.133-2.133,4.267-2.133,6.4
			c0,0,0,0,0,2.133c0,2.133,0,0,0,2.133v362.667C0,507.733,4.267,512,10.667,512H256v-61.867c0-2.133,2.133-6.4,2.133-8.533
			L384,315.733V10.667C384,4.267,379.733,0,373.333,0z M160,213.333c6.4,0,10.667,4.267,10.667,10.667S166.4,234.667,160,234.667
			H53.333c-6.4,0-10.667-4.267-10.667-10.667s4.267-10.667,10.667-10.667H160z M128,36.267V128H36.267L128,36.267z M138.667,405.333
			H53.333c-6.4,0-10.667-4.267-10.667-10.667S46.933,384,53.333,384h85.333c6.4,0,10.667,4.267,10.667,10.667
			S145.067,405.333,138.667,405.333z M288,320H53.333c-6.4,0-10.667-4.267-10.667-10.667c0-6.4,4.267-10.667,10.667-10.667H288
			c6.4,0,10.667,4.267,10.667,10.667C298.667,315.733,294.4,320,288,320z M320,174.933c0,19.2-17.067,34.133-42.667,38.4V224
			c0,6.4-4.267,10.667-10.667,10.667c-6.4,0-10.667-4.267-10.667-10.667v-10.667c-23.467-2.133-40.533-17.067-42.667-34.133
			c0-6.4,4.267-10.667,8.533-10.667c6.4-2.133,12.8,2.133,12.8,8.533c0,6.4,8.533,12.8,21.333,14.933v-34.133
			c-17.067-4.267-42.667-10.667-42.667-36.267c0-19.2,17.067-34.133,42.667-36.267V74.667c0-6.4,4.267-10.667,10.667-10.667
			c6.4,0,10.667,4.267,10.667,10.667v10.667C300.8,87.467,317.867,102.4,320,119.467c0,6.4-4.267,10.667-8.533,10.667
			c-6.4,2.133-12.8-2.133-12.8-8.533c0-6.4-8.533-12.8-21.333-14.933v32C294.4,142.933,320,149.333,320,174.933z"/>
	</g>
</g>
<g>
</g>
<g>
</g>
<g>
</g>
<g>
</g>
<g>
</g>
<g>
</g>
<g>
</g>
<g>
</g>
<g>
</g>
<g>
</g>
<g>
</g>
<g>
</g>
<g>
</g>
<g>
</g>
<g>
</g>
</svg>
