<svg width="464" height="464" viewBox="0 0 464 464" fill="none" xmlns="http://www.w3.org/2000/svg">
<path d="M384 368C384 376.836 376.836 384 368 384C359.164 384 352 376.836 352 368C352 359.164 359.164 352 368 352C376.836 352 384 359.164 384 368Z" fill="white"/>
<path d="M368 320C341.527 320 320 341.527 320 368C320 394.473 341.527 416 368 416C394.473 416 416 394.473 416 368C416 341.527 394.473 320 368 320ZM368 400C350.352 400 336 385.648 336 368C336 350.352 350.352 336 368 336C385.648 336 400 350.352 400 368C400 385.648 385.648 400 368 400Z" fill="white"/>
<path d="M443.312 394.734L444.742 390.703L464 385.793V350.215L444.742 345.305L443.312 341.273C442.398 338.664 441.336 336.121 440.152 333.648L438.312 329.801L448.457 312.703L423.305 287.551L406.207 297.695L402.359 295.855C399.879 294.68 397.344 293.617 394.734 292.695L390.703 291.266L385.793 272H350.215L345.305 291.258L341.273 292.688C338.664 293.602 336.121 294.664 333.648 295.848L329.801 297.688L312.703 287.543L287.551 312.695L297.695 329.793L295.855 333.641C294.68 336.121 293.617 338.656 292.695 341.266L291.266 345.297L272 350.207V385.785L291.258 390.695L292.688 394.727C293.602 397.336 294.664 399.879 295.848 402.352L297.688 406.199L287.543 423.297L312.695 448.449L329.793 438.305L333.641 440.145C336.121 441.32 338.656 442.383 341.266 443.305L345.297 444.734L350.207 464H385.785L390.695 444.742L394.727 443.312C397.336 442.398 399.879 441.336 402.352 440.152L406.199 438.312L423.297 448.457L448.449 423.305L438.305 406.207L440.145 402.359C441.336 399.879 442.398 397.344 443.312 394.734V394.734ZM368 432C332.711 432 304 403.289 304 368C304 332.711 332.711 304 368 304C403.289 304 432 332.711 432 368C432 403.289 403.289 432 368 432Z" fill="white"/>
<path d="M269.68 165.672L259.434 161.832L243.305 188.703L259.328 196.719L269.68 165.672Z" fill="white"/>
<path d="M312 198.176C312 188.223 305.742 179.199 296.434 175.703L284.664 171.289L268.672 219.273L232 200.945L195.328 219.281L179.336 171.297L167.574 175.703C158.258 179.199 152 188.223 152 198.176V224H312V198.176Z" fill="white"/>
<path d="M184 101.777V74.2305C179.238 77.0078 176 82.1133 176 88.0078C176 93.9023 179.238 99 184 101.777Z" fill="white"/>
<path d="M232 136C249.648 136 264 121.648 264 104V71.457C252.289 70.2227 241.238 65.9531 232 58.6875C222.762 65.9609 211.711 70.2227 200 71.457V104C200 121.648 214.352 136 232 136Z" fill="white"/>
<path d="M193.375 56C205.832 56 217.543 51.1523 226.344 42.3438L232 36.6797L237.656 42.3438C246.465 51.1523 258.168 56 270.625 56H272C277.855 56 283.273 57.6953 288 60.4492V56C288 25.1211 262.871 0 232 0C201.129 0 176 25.1211 176 56V60.4492C180.727 57.6953 186.145 56 192 56H193.375Z" fill="white"/>
<path d="M204.672 196.719L220.695 188.703L204.566 161.832L194.32 165.672L204.672 196.719Z" fill="white"/>
<path d="M280 101.777C284.762 99 288 93.8945 288 88C288 82.1055 284.762 77 280 74.2227V101.777Z" fill="white"/>
<path d="M248 149.785V149.199C242.984 150.977 237.617 152 232 152C226.383 152 221.016 150.977 216 149.199V149.785L232 176.449L248 149.785Z" fill="white"/>
<path d="M0 464H128V288H0V464ZM112 448H96V432H112V448ZM112 352H48V336H112V352ZM16 304H112V320H16V304ZM16 336H32V352H16V336ZM16 368H112V384H16V368ZM16 400H112V416H16V400ZM16 432H80V448H16V432Z" fill="white"/>
<path d="M197.656 341.656L186.344 330.344L148.688 368L186.344 405.656L197.656 394.344L179.312 376H240V360H179.312L197.656 341.656Z" fill="white"/>
<path d="M98.3438 69.6562L116.688 88H80C66.7695 88 56 98.7695 56 112V256H72V112C72 107.594 75.5859 104 80 104H116.688L98.3438 122.344L109.656 133.656L147.312 96L109.656 58.3438L98.3438 69.6562Z" fill="white"/>
<path d="M368 112V212.688L349.656 194.344L338.344 205.656L376 243.312L413.656 205.656L402.344 194.344L384 212.688V112C384 98.7695 373.23 88 360 88H320V104H360C364.414 104 368 107.594 368 112Z" fill="white"/>
</svg>
